<svg width="24" height="25" viewBox="0 0 24 25" fill="none" xmlns="http://www.w3.org/2000/svg">
<path d="M7.4812 9.84687H2.9812V5.34687" stroke="black" stroke-linecap="round" stroke-linejoin="round"/>
<path d="M17.8312 6.66875C17.0658 5.90227 16.1569 5.29419 15.1563 4.87931C14.1557 4.46443 13.0831 4.25088 12 4.25088C10.9168 4.25088 9.84421 4.46443 8.84362 4.87931C7.84304 5.29419 6.93407 5.90227 6.1687 6.66875L2.9812 9.84688" stroke="black" stroke-linecap="round" stroke-linejoin="round"/>
<path d="M16.5188 15.1531H21.0188V19.6531" stroke="black" stroke-linecap="round" stroke-linejoin="round"/>
<path d="M6.1687 18.3313C6.93407 19.0977 7.84304 19.7058 8.84362 20.1207C9.84421 20.5356 10.9168 20.7491 12 20.7491C13.0831 20.7491 14.1557 20.5356 15.1563 20.1207C16.1569 19.7058 17.0658 19.0977 17.8312 18.3313L21.0187 15.1531" stroke="black" stroke-linecap="round" stroke-linejoin="round"/>
</svg>
